<mxfile host="app.diagrams.net" modified="2023-11-18T01:41:28.437Z" agent="Mozilla/5.0 (Windows NT 10.0; Win64; x64) AppleWebKit/537.36 (KHTML, like Gecko) Chrome/116.0.0.0 Safari/537.36" etag="aybp3_CBUIf3LEli57Jy" version="22.1.3" type="github">
  <diagram name="PÃ¡gina-1" id="kJy6fA5xsbS_I4HmSZd8">
    <mxGraphModel dx="1434" dy="725" grid="1" gridSize="10" guides="1" tooltips="1" connect="1" arrows="1" fold="1" page="1" pageScale="1" pageWidth="827" pageHeight="1169" math="0" shadow="0">
      <root>
        <mxCell id="0" />
        <mxCell id="1" parent="0" />
        <mxCell id="3AA65xwWDKS9D7IZsWyU-1" value="" style="rounded=0;whiteSpace=wrap;html=1;movable=0;resizable=0;rotatable=0;deletable=0;editable=0;locked=1;connectable=0;" vertex="1" parent="1">
          <mxGeometry width="820" height="540" as="geometry" />
        </mxCell>
        <mxCell id="3AA65xwWDKS9D7IZsWyU-2" value="" style="endArrow=none;html=1;rounded=0;movable=0;resizable=0;rotatable=0;deletable=0;editable=0;locked=1;connectable=0;" edge="1" parent="1">
          <mxGeometry width="50" height="50" relative="1" as="geometry">
            <mxPoint y="40" as="sourcePoint" />
            <mxPoint x="820" y="40" as="targetPoint" />
          </mxGeometry>
        </mxCell>
        <mxCell id="3AA65xwWDKS9D7IZsWyU-3" value="Empleado" style="text;html=1;strokeColor=none;fillColor=none;align=center;verticalAlign=middle;whiteSpace=wrap;rounded=0;" vertex="1" parent="1">
          <mxGeometry x="70" y="10" width="60" height="30" as="geometry" />
        </mxCell>
        <mxCell id="3AA65xwWDKS9D7IZsWyU-4" value="" style="endArrow=none;html=1;rounded=0;" edge="1" parent="1">
          <mxGeometry width="50" height="50" relative="1" as="geometry">
            <mxPoint x="210" y="540" as="sourcePoint" />
            <mxPoint x="210" as="targetPoint" />
          </mxGeometry>
        </mxCell>
        <mxCell id="3AA65xwWDKS9D7IZsWyU-5" value="" style="endArrow=none;html=1;rounded=0;" edge="1" parent="1">
          <mxGeometry width="50" height="50" relative="1" as="geometry">
            <mxPoint x="560" y="540" as="sourcePoint" />
            <mxPoint x="560" as="targetPoint" />
          </mxGeometry>
        </mxCell>
        <mxCell id="3AA65xwWDKS9D7IZsWyU-6" value="Sistema" style="text;html=1;strokeColor=none;fillColor=none;align=center;verticalAlign=middle;whiteSpace=wrap;rounded=0;" vertex="1" parent="1">
          <mxGeometry x="354" y="10" width="60" height="30" as="geometry" />
        </mxCell>
        <mxCell id="3AA65xwWDKS9D7IZsWyU-7" value="Base de datos" style="text;html=1;strokeColor=none;fillColor=none;align=center;verticalAlign=middle;whiteSpace=wrap;rounded=0;" vertex="1" parent="1">
          <mxGeometry x="650" y="10" width="90" height="30" as="geometry" />
        </mxCell>
        <mxCell id="3AA65xwWDKS9D7IZsWyU-13" value="" style="ellipse;html=1;" vertex="1" parent="1">
          <mxGeometry x="230" y="65" width="30" height="30" as="geometry" />
        </mxCell>
        <mxCell id="3AA65xwWDKS9D7IZsWyU-14" value="" style="endArrow=open;html=1;rounded=0;align=center;verticalAlign=top;endFill=0;labelBackgroundColor=none;endSize=6;entryX=0;entryY=0.5;entryDx=0;entryDy=0;" edge="1" source="3AA65xwWDKS9D7IZsWyU-13" parent="1" target="3AA65xwWDKS9D7IZsWyU-15">
          <mxGeometry relative="1" as="geometry">
            <mxPoint x="290" y="65" as="targetPoint" />
          </mxGeometry>
        </mxCell>
        <mxCell id="3AA65xwWDKS9D7IZsWyU-15" value="Se muestra el formulario de registro" style="rounded=1;whiteSpace=wrap;html=1;" vertex="1" parent="1">
          <mxGeometry x="324" y="50" width="120" height="60" as="geometry" />
        </mxCell>
        <mxCell id="3AA65xwWDKS9D7IZsWyU-16" value="Se cargan los datos guardados de ciudad, bachillerato y carreras disponibles" style="rounded=1;whiteSpace=wrap;html=1;" vertex="1" parent="1">
          <mxGeometry x="612.5" y="50" width="165" height="60" as="geometry" />
        </mxCell>
        <mxCell id="3AA65xwWDKS9D7IZsWyU-17" value="" style="endArrow=open;html=1;rounded=0;align=center;verticalAlign=top;endFill=0;labelBackgroundColor=none;endSize=6;exitX=1;exitY=0.5;exitDx=0;exitDy=0;" edge="1" parent="1" source="3AA65xwWDKS9D7IZsWyU-15" target="3AA65xwWDKS9D7IZsWyU-16">
          <mxGeometry relative="1" as="geometry">
            <mxPoint x="334" y="90" as="targetPoint" />
            <mxPoint x="270" y="90" as="sourcePoint" />
          </mxGeometry>
        </mxCell>
        <mxCell id="3AA65xwWDKS9D7IZsWyU-18" value="Llena los datos del formulario" style="rounded=1;whiteSpace=wrap;html=1;" vertex="1" parent="1">
          <mxGeometry x="40" y="130" width="120" height="60" as="geometry" />
        </mxCell>
        <mxCell id="3AA65xwWDKS9D7IZsWyU-20" value="Dar clic en registrar" style="rounded=1;whiteSpace=wrap;html=1;" vertex="1" parent="1">
          <mxGeometry x="40" y="220" width="120" height="60" as="geometry" />
        </mxCell>
      </root>
    </mxGraphModel>
  </diagram>
</mxfile>
